<svg width="114.7" height="22" xmlns="http://www.w3.org/2000/svg">
 <g stroke="null">
  <title>background</title>
  <rect stroke="null" x="-1" y="-1" width="116.7" height="24" id="canvas_background" fill="none"/>
 </g>

 <g stroke="null">
  <title>Layer 1</title>
  <g stroke="null" id="XMLID_1189_">
   <g stroke="null" id="XMLID_360_"/>
   <g stroke="null" id="XMLID_1009_">
    <g stroke="null" id="XMLID_693_">
     <g stroke="null" id="XMLID_694_">
      <polygon stroke="null" id="XMLID_1033_" points="20.379308700561523,12.538850784301758 19.42901039123535,5.8425164222717285 20.86790657043457,5.631106376647949 21.818204879760742,12.327492713928223 " fill="#ffffff"/>
     </g>
    </g>
    <g stroke="null" id="XMLID_660_">
     <g stroke="null" id="XMLID_696_">
      <rect stroke="null" id="XMLID_1030_" x="-565.698572" y="-882.508079" transform="matrix(0.047798413186727264,-0.008090826735156976,0.008090826735156976,0.047798413186727264,48.25367177753368,41.30016332937205) " width="30" height="281.107" fill="#ffffff"/>
     </g>
    </g>
    <g stroke="null" id="XMLID_691_">
     <g stroke="null" id="XMLID_695_">
      <rect stroke="null" id="XMLID_1027_" x="-522.314384" y="-903.915831" transform="matrix(0.04782749944221614,-0.007911461492975546,0.007911461492975546,0.04782749944221614,48.51263155786043,41.60918540310441) " width="30" height="281.107" fill="#ffffff"/>
     </g>
    </g>
    <g stroke="null" id="XMLID_1098_">
     <g stroke="null" id="XMLID_1099_">
      <polygon stroke="null" id="XMLID_1113_" points="20.038511276245117,15.717540740966797 18.603591918945312,15.954593658447266 18.238557815551758,13.745978355407715 17.68543815612793,10.40202808380127 17.68543815612793,2.2942352294921875 17.814870834350586,2.2729055881500244 17.9224910736084,2.924922466278076 19.41122055053711,11.925179481506348 " fill="#ffffff"/>
     </g>
    </g>
    <path stroke="null" id="XMLID_905_" d="m23.62446,4.29411c-0.41981,-0.38525 -1.00624,-0.46296 -1.56901,-0.20792c-0.1814,0.08227 -0.37172,0.17966 -0.57329,0.28282c-0.20021,0.10243 -0.50033,0.25605 -0.75876,0.36518c-0.0893,0.03766 -0.18509,-0.0401 -0.16623,-0.13516c0.00019,-0.00087 0.00034,-0.0017 0.00049,-0.00257c0.31117,-1.5644 -0.24792,-2.34445 -0.77171,-2.72334c-1.02156,-0.73889 -2.5817,-0.44585 -3.67476,0.17243c-0.55467,0.31369 -1.47302,0.8276 -2.27367,1.27475c-0.12226,-0.80515 -0.81742,-1.42217 -1.65671,-1.42217c-0.92552,0 -1.6758,0.75028 -1.6758,1.67581c0,0.76947 0.5188,1.41737 1.22555,1.61414l2.68141,15.46385l8.66576,0l0,-0.68925c0,-1.08341 -0.82701,-1.96172 -1.84717,-1.96172l-1.08569,0l3.81054,-10.51507l0.00189,-0.00533c0.4602,-1.30093 0.32635,-2.58145 -0.33284,-3.18645zm-0.85213,1.84795c-0.03005,0.42495 -0.17418,0.834 -0.40406,1.19268l-6.8708,10.66593l-2.26529,-12.67734c0.70777,-0.39446 2.66208,-1.48427 3.59507,-2.01195c0.76302,-0.43159 1.70794,-0.54818 2.10647,-0.25993c0.32412,0.23443 0.2864,0.81529 0.19769,1.26128c-0.06258,0.31451 -0.25295,1.27165 0.40886,1.77169c0.71969,0.54381 1.72108,0.03131 2.60457,-0.42083c0.00185,-0.00097 0.00374,-0.00189 0.00563,-0.00286c0.29188,-0.14912 0.63863,0.07 0.62647,0.39756c-0.00107,0.02724 -0.00257,0.05517 -0.00461,0.08377z" fill="#ffffff"/>
    <path stroke="null" id="XMLID_1094_" d="m23.62436,4.29392c-0.41981,-0.38491 -1.00638,-0.46296 -1.56872,-0.20797c-0.18178,0.08241 -0.37181,0.17985 -0.57348,0.28311c-0.20021,0.10228 -0.50028,0.25595 -0.75867,0.36503c-0.08919,0.03781 -0.18518,-0.04024 -0.16627,-0.13525c0,-0.00049 0.00048,-0.00146 0.00048,-0.00243c0.31123,-1.56435 -0.24771,-2.34435 -0.77175,-2.72344c-0.58609,-0.42417 -1.3496,-0.50804 -2.10051,-0.38588l0,1.48534c0.07998,-0.01939 0.15949,-0.03539 0.23705,-0.04751c0.4203,-0.0669 0.79551,-0.02957 1.01123,0.12653c0.32383,0.23463 0.2865,0.81538 0.19779,1.26137c-0.06254,0.31462 -0.25305,1.27155 0.40866,1.77135c0.71989,0.54392 1.72094,0.03151 2.60468,-0.42078c0.00193,-0.00097 0.00387,-0.00194 0.00533,-0.00291c0.29231,-0.14882 0.63892,0.0703 0.62681,0.398c-0.00097,0.02715 -0.00243,0.05478 -0.00485,0.08338c-0.03006,0.42515 -0.17403,0.83429 -0.40382,1.19302l-2.9571,4.5903l-1.17266,1.8208l-0.55312,0.85853l0,6.04752l5.39259,0l0,-0.68935c0,-1.08346 -0.82702,-1.96187 -1.84746,-1.96187l-1.08541,0l3.8103,-10.51516l0.00194,-0.00533c0.46005,-1.30064 0.32625,-2.58141 -0.33304,-3.1864z" fill="#ffffff"/>
    <text font-weight="bold" stroke="null" transform="matrix(1.2570281028747559,0,0,1.0318725109100342,-24.20481837540865,-0.5776892602443695) " xml:space="preserve" text-anchor="start" font-family="'Palatino Linotype', 'Book Antiqua', Palatino, serif" font-size="17" id="svg_3" y="17.285382" x="42.655312" stroke-opacity="null" stroke-width="0" fill="#ffffff">HARP</text>
   </g>
  </g>
 </g>
</svg>