<svg width="512" height="512" xmlns="http://www.w3.org/2000/svg">

 <g>
  <title>background</title>
  <rect fill="none" id="canvas_background" height="402" width="582" y="-1" x="-1"/>
 </g>
 <g>
  <title>Layer 1</title>
  <g id="XMLID_1189_">
   <g id="XMLID_360_"/>
   <g id="XMLID_1009_">
    <g id="XMLID_693_">
     <g id="XMLID_694_">
      <polygon fill="#5798ed" points="311.57,281.839 291.967,143.705 321.649,139.344 341.252,277.479           " id="XMLID_1033_"/>
     </g>
    </g>
    <g id="XMLID_660_">
     <g id="XMLID_696_">
      <rect fill="#6abff8" height="281.107" width="30" transform="matrix(0.986,-0.1669,0.1669,0.986,-36.2223,39.9855) " y="94.914" x="204.749" id="XMLID_1030_"/>
     </g>
    </g>
    <g id="XMLID_691_">
     <g id="XMLID_695_">
      <rect fill="#6abff8" height="281.107" width="30" transform="matrix(0.9866,-0.1632,0.1632,0.9866,-30.8804,46.3601) " y="70.63" x="251.806" id="XMLID_1027_"/>
     </g>
    </g>
    <g id="XMLID_1098_">
     <g id="XMLID_1099_">
      <polygon fill="#5798ed" points="304.54,347.41 274.94,352.3 267.41,306.74 256,237.76 256,70.51       258.67,70.07 260.89,83.52 291.6,269.18     " id="XMLID_1113_"/>
     </g>
    </g>
    <path fill="#5798ed" d="m378.512,111.764c-8.66,-7.947 -20.757,-9.55 -32.366,-4.289c-3.742,1.697 -7.668,3.706 -11.826,5.834c-4.13,2.113 -10.321,5.282 -15.652,7.533c-1.842,0.777 -3.818,-0.827 -3.429,-2.788c0.004,-0.018 0.007,-0.035 0.01,-0.053c6.419,-32.271 -5.114,-48.362 -15.919,-56.178c-21.073,-15.242 -53.256,-9.197 -75.804,3.557c-11.442,6.471 -30.386,17.072 -46.902,26.296c-2.522,-16.609 -16.862,-29.337 -34.175,-29.337c-19.092,0 -34.569,15.477 -34.569,34.569c0,15.873 10.702,29.238 25.281,33.297l55.313,318.993l178.76,0l0,-14.218c0,-22.349 -17.06,-40.467 -38.104,-40.467l-22.396,0l78.605,-216.908l0.039,-0.11c9.493,-26.836 6.732,-53.251 -6.866,-65.731zm-17.578,38.12c-0.62,8.766 -3.593,17.204 -8.335,24.603l-141.733,220.02l-46.729,-261.512c14.6,-8.137 54.914,-30.618 74.16,-41.503c15.74,-8.903 35.232,-11.308 43.453,-5.362c6.686,4.836 5.908,16.818 4.078,26.018c-1.291,6.488 -5.218,26.232 8.434,36.547c14.846,11.218 35.503,0.646 53.728,-8.681c0.038,-0.02 0.077,-0.039 0.116,-0.059c6.021,-3.076 13.174,1.444 12.923,8.201c-0.022,0.562 -0.053,1.138 -0.095,1.728z" id="XMLID_905_"/>
    <path fill="#6abff8" d="m378.51,111.76c-8.66,-7.94 -20.76,-9.55 -32.36,-4.29c-3.75,1.7 -7.67,3.71 -11.83,5.84c-4.13,2.11 -10.32,5.28 -15.65,7.53c-1.84,0.78 -3.82,-0.83 -3.43,-2.79c0,-0.01 0.01,-0.03 0.01,-0.05c6.42,-32.27 -5.11,-48.36 -15.92,-56.18c-12.09,-8.75 -27.84,-10.48 -43.33,-7.96l0,30.64c1.65,-0.4 3.29,-0.73 4.89,-0.98c8.67,-1.38 16.41,-0.61 20.86,2.61c6.68,4.84 5.91,16.82 4.08,26.02c-1.29,6.49 -5.22,26.23 8.43,36.54c14.85,11.22 35.5,0.65 53.73,-8.68c0.04,-0.02 0.08,-0.04 0.11,-0.06c6.03,-3.07 13.18,1.45 12.93,8.21c-0.02,0.56 -0.05,1.13 -0.1,1.72c-0.62,8.77 -3.59,17.21 -8.33,24.61l-61,94.69l-24.19,37.56l-11.41,17.71l0,124.75l111.24,0l0,-14.22c0,-22.35 -17.06,-40.47 -38.11,-40.47l-22.39,0l78.6,-216.91l0.04,-0.11c9.49,-26.83 6.73,-53.25 -6.87,-65.73z" id="XMLID_1094_"/>
   </g>
  </g>
 </g>
</svg>