<svg width="114.7" height="22" xmlns="http://www.w3.org/2000/svg" style="vector-effect: non-scaling-stroke;" stroke="null">
 <g stroke="null">
  <title stroke="null">background</title>
  <rect stroke="null" x="-1" y="-1" width="116.7" height="24" id="canvas_background" fill="none"/>
 </g>

 <g stroke="null">
  <title stroke="null">Layer 1</title>
  <g stroke="null" id="XMLID_1189_">
   <g stroke="null" id="XMLID_360_"/>
   <g stroke="null" id="XMLID_1009_">
    <g stroke="null" id="XMLID_693_">
     <g stroke="null" id="XMLID_694_">
      <polygon stroke="null" id="XMLID_1033_" points="20.379308700561523,12.538850784301758 19.42901039123535,5.8425164222717285 20.86790657043457,5.631106376647949 21.818204879760742,12.327492713928223 " fill="#ffffff"/>
     </g>
    </g>
    <g stroke="null" id="XMLID_660_">
     <g stroke="null" id="XMLID_696_">
      <rect stroke="null" id="XMLID_1030_" x="-565.698572" y="-882.508079" transform="matrix(0.047798413186727264,-0.008090826735156976,0.008090826735156976,0.047798413186727264,48.25367177753368,41.30016332937205) " width="30" height="281.107" fill="#ffffff"/>
     </g>
    </g>
    <g stroke="null" id="XMLID_691_">
     <g stroke="null" id="XMLID_695_">
      <rect stroke="null" id="XMLID_1027_" x="-522.314384" y="-903.915831" transform="matrix(0.04782749944221614,-0.007911461492975546,0.007911461492975546,0.04782749944221614,48.51263155786043,41.60918540310441) " width="30" height="281.107" fill="#ffffff"/>
     </g>
    </g>
    <g stroke="null" id="XMLID_1098_">
     <g stroke="null" id="XMLID_1099_">
      <polygon stroke="null" id="XMLID_1113_" points="20.038511276245117,15.717540740966797 18.603591918945312,15.954593658447266 18.238557815551758,13.745978355407715 17.68543815612793,10.40202808380127 17.68543815612793,2.2942352294921875 17.814870834350586,2.2729055881500244 17.9224910736084,2.924922466278076 19.41122055053711,11.925179481506348 " fill="#ffffff"/>
     </g>
    </g>
    <path stroke="null" id="XMLID_905_" d="m23.624461,4.29411c-0.419812,-0.385247 -1.006239,-0.462956 -1.56901,-0.207918c-0.181401,0.082266 -0.371722,0.179656 -0.57329,0.282815c-0.20021,0.102432 -0.500332,0.256056 -0.758763,0.365178c-0.089295,0.037667 -0.185086,-0.040091 -0.166228,-0.135154c0.000194,-0.000873 0.000339,-0.001697 0.000485,-0.002569c0.311174,-1.564404 -0.247912,-2.344449 -0.771707,-2.723346c-1.021558,-0.738888 -2.581696,-0.445844 -3.674758,0.172433c-0.554675,0.313695 -1.473025,0.827601 -2.273673,1.274754c-0.122259,-0.805156 -0.817421,-1.422172 -1.656705,-1.422172c-0.925525,0 -1.675805,0.75028 -1.675805,1.675805c0,0.769477 0.518802,1.417373 1.225549,1.614142l2.681413,15.463853l8.665765,0l0,-0.689247c0,-1.083415 -0.827019,-1.961723 -1.847171,-1.961723l-1.085693,0l3.810542,-10.515069l0.001891,-0.005332c0.460193,-1.300931 0.326348,-2.581454 -0.332844,-3.186448zm-0.85213,1.847947c-0.030056,0.42495 -0.174178,0.834 -0.404057,1.192682l-6.870804,10.66593l-2.265286,-12.677341c0.707766,-0.394458 2.662071,-1.484272 3.595061,-2.011945c0.763029,-0.431592 1.707945,-0.548179 2.106475,-0.259934c0.324118,0.234435 0.286403,0.815288 0.19769,1.261277c-0.062584,0.314519 -0.252953,1.271651 0.408856,1.771692c0.719691,0.543816 1.721082,0.031316 2.604577,-0.42083c0.001842,-0.00097 0.003733,-0.001891 0.005623,-0.00286c0.291881,-0.149116 0.638637,0.070001 0.626469,0.397561c-0.001066,0.027244 -0.002569,0.055167 -0.004605,0.083768z" fill="#ffffff"/>
    <path stroke="null" id="XMLID_1094_" d="m23.624364,4.293916c-0.419812,-0.384908 -1.006384,-0.462956 -1.568719,-0.207967c-0.181789,0.082411 -0.371819,0.17985 -0.573484,0.283106c-0.20021,0.102287 -0.500284,0.255959 -0.758666,0.365033c-0.089198,0.037812 -0.185182,-0.040236 -0.166276,-0.135251c0,-0.000485 0.000485,-0.001454 0.000485,-0.002424c0.311223,-1.564356 -0.247718,-2.344352 -0.771755,-2.723443c-0.586088,-0.424175 -1.349602,-0.50804 -2.100512,-0.385878l0,1.485338c0.079987,-0.019391 0.15949,-0.035388 0.237053,-0.047508c0.420296,-0.066898 0.795509,-0.029571 1.011232,0.126525c0.323827,0.234629 0.2865,0.815385 0.197787,1.261374c-0.062535,0.314616 -0.25305,1.271554 0.408662,1.771353c0.719885,0.543913 1.720937,0.03151 2.604674,-0.420781c0.001939,-0.00097 0.003878,-0.001939 0.005332,-0.002909c0.292317,-0.148825 0.638928,0.070292 0.626809,0.397997c-0.00097,0.027147 -0.002424,0.054779 -0.004848,0.083381c-0.030056,0.425144 -0.174033,0.834291 -0.403814,1.193021l-2.957103,4.590296l-1.172661,1.8208l-0.553124,0.858529l0,6.047517l5.392592,0l0,-0.689344c0,-1.083463 -0.827019,-1.961868 -1.847462,-1.961868l-1.085402,0l3.810299,-10.515166l0.001939,-0.005332c0.460048,-1.30064 0.326251,-2.581405 -0.333038,-3.186399z" fill="#ffffff"/>
    <text font-weight="bold" stroke="null" transform="matrix(1.2570281028747559,0,0,1.0318725109100342,-24.20481837540865,-0.5776892602443695) " xml:space="preserve" text-anchor="start" font-family="Arvo, sans-serif" font-size="17" id="svg_3" y="17.285382" x="42.655312" stroke-opacity="null" stroke-width="0" fill="#ffffff">HARP</text>
   </g>
  </g>
 </g>
</svg>