<svg width="34" height="22" xmlns="http://www.w3.org/2000/svg">
 <g>
  <title>background</title>
  <rect x="-1" y="-1" width="36" height="24" id="canvas_background" fill="none"/>
 </g>

 <g>
  <title>Layer 1</title>
  <g stroke="null" id="XMLID_1189_">
   <g stroke="null" id="XMLID_360_"/>
   <g stroke="null" id="XMLID_1009_">
    <g stroke="null" id="XMLID_693_">
     <g stroke="null" id="XMLID_694_">
      <polygon stroke="null" id="XMLID_1033_" points="20.66893768310547,12.58554744720459 19.666706085205078,5.523256301879883 21.18423843383789,5.300294876098633 22.18647003173828,12.362637519836426 " fill="#5798ed"/>
     </g>
    </g>
    <g stroke="null" id="XMLID_660_">
     <g stroke="null" id="XMLID_696_">
      <rect stroke="null" id="XMLID_1030_" x="-137.407102" y="51.09952" transform="matrix(0.050410606931366675,-0.008532992187469671,0.008532992187469671,0.050410606931366675,20.50974135432046,-0.49044564988075123) " width="30" height="281.107" fill="#6abff8"/>
     </g>
    </g>
    <g stroke="null" id="XMLID_691_">
     <g stroke="null" id="XMLID_695_">
      <rect stroke="null" id="XMLID_1027_" x="-90.518396" y="28.097499" transform="matrix(0.05044128275708556,-0.008343824595536552,0.008343824595536552,0.05044128275708556,20.782853343333308,-0.16453545216808507) " width="30" height="281.107" fill="#6abff8"/>
     </g>
    </g>
    <g stroke="null" id="XMLID_1098_">
     <g stroke="null" id="XMLID_1099_">
      <polygon stroke="null" id="XMLID_1113_" points="20.309518814086914,15.937955856323242 18.79617691040039,16.187963485717773 18.411195755004883,13.858644485473633 17.827842712402344,10.331949234008789 17.827842712402344,1.7810616493225098 17.9643497467041,1.758568525314331 18.077852249145508,2.4462170600891113 19.64794158935547,11.938338279724121 " fill="#5798ed"/>
     </g>
    </g>
    <path stroke="null" id="XMLID_905_" d="m24.091438,3.89023c-0.442754,-0.406301 -1.06123,-0.488257 -1.654756,-0.219281c-0.191315,0.086761 -0.392037,0.189474 -0.604621,0.298271c-0.211152,0.10803 -0.527675,0.27005 -0.80023,0.385135c-0.094175,0.039725 -0.195201,-0.042282 -0.175312,-0.14254c0.000205,-0.00092 0.000358,-0.001789 0.000511,-0.00271c0.32818,-1.649899 -0.26146,-2.472574 -0.813881,-2.872178c-1.077386,-0.779268 -2.722786,-0.470209 -3.875584,0.181857c-0.584988,0.330839 -1.553526,0.872829 -2.397929,1.344419c-0.128941,-0.849158 -0.862093,-1.499894 -1.747244,-1.499894c-0.976105,0 -1.767388,0.791283 -1.767388,1.767388c0,0.811529 0.547154,1.494833 1.292526,1.702355l2.827953,16.308956l9.139351,0l0,-0.726915c0,-1.142623 -0.872216,-2.068931 -1.948119,-2.068931l-1.145026,0l4.018789,-11.08972l0.001994,-0.005624c0.485343,-1.372027 0.344183,-2.722531 -0.351034,-3.360588zm-0.898699,1.948937c-0.031698,0.448174 -0.183697,0.879578 -0.426138,1.257862l-7.246295,11.248825l-2.389084,-13.370161c0.746445,-0.416015 2.807554,-1.565387 3.791532,-2.121898c0.804729,-0.455178 1.801284,-0.578137 2.221594,-0.27414c0.341831,0.247247 0.302055,0.859843 0.208493,1.330206c-0.066004,0.331708 -0.266777,1.341147 0.4312,1.868516c0.759022,0.573536 1.81514,0.033028 2.746918,-0.443828c0.001943,-0.001023 0.003937,-0.001994 0.005931,-0.003016c0.307832,-0.157265 0.673539,0.073826 0.660706,0.419287c-0.001125,0.028733 -0.00271,0.058182 -0.004857,0.088346z" fill="#5798ed"/>
    <path stroke="null" id="XMLID_1094_" d="m24.091336,3.890025c-0.442754,-0.405943 -1.061384,-0.488257 -1.65445,-0.219332c-0.191724,0.086915 -0.392139,0.189679 -0.604825,0.298578c-0.211152,0.107877 -0.527624,0.269947 -0.800128,0.384982c-0.094073,0.039879 -0.195303,-0.042435 -0.175363,-0.142643c0,-0.000511 0.000511,-0.001534 0.000511,-0.002556c0.328231,-1.649848 -0.261256,-2.472472 -0.813932,-2.87228c-0.618118,-0.447356 -1.423358,-0.535804 -2.215306,-0.406966l0,1.566512c0.084359,-0.020451 0.168206,-0.037322 0.250008,-0.050104c0.443266,-0.070554 0.838984,-0.031187 1.066496,0.13344c0.341524,0.247452 0.302157,0.859946 0.208596,1.330308c-0.065953,0.33181 -0.26688,1.341045 0.430995,1.868158c0.759227,0.573638 1.814986,0.033232 2.74702,-0.443777c0.002045,-0.001023 0.00409,-0.002045 0.005624,-0.003068c0.308292,-0.156958 0.673846,0.074133 0.661064,0.419748c-0.001023,0.028631 -0.002556,0.057773 -0.005113,0.087937c-0.031698,0.448378 -0.183544,0.879885 -0.425883,1.25822l-3.118709,4.841157l-1.236747,1.920307l-0.583352,0.905448l0,6.378015l5.687298,0l0,-0.727017c0,-1.142675 -0.872216,-2.069084 -1.948426,-2.069084l-1.14472,0l4.018533,-11.089822l0.002045,-0.005624c0.485189,-1.371721 0.344081,-2.72248 -0.351238,-3.360537z" fill="#6abff8"/>
   </g>
  </g>
 </g>
</svg>